<svg width="32" height="32" viewBox="0 0 32 32" fill="none" xmlns="http://www.w3.org/2000/svg">
<g clip-path="url(#clip0_6499_52380)">
<path d="M0 0.975285V31.0318C0.00117225 31.2897 0.104442 31.5366 0.287217 31.7186C0.469992 31.9005 0.71739 32.0027 0.975285 32.0027H31.0318C31.2885 32.0008 31.5341 31.8978 31.7153 31.7161C31.8965 31.5343 31.9988 31.2885 32 31.0318V20.7789L8.60024 0H0.975285C0.716624 0 0.468556 0.102753 0.285654 0.285654C0.102753 0.468556 0 0.716623 0 0.975285" fill="#ED1B33"/>
<path d="M31.0337 0H10.3984L32.0019 19.1794V0.975285C32.0019 0.717848 31.9001 0.470849 31.7187 0.28815C31.5374 0.105451 31.2911 0.00187227 31.0337 0" fill="#ED1B33"/>
<path d="M23.2806 20.4431C23.2926 21.5945 23.1085 22.7395 22.7362 23.8291C22.4039 24.8067 21.8928 25.714 21.2289 26.5049C20.6016 27.2465 19.8224 27.8448 18.9441 28.2595C18.0462 28.6731 17.0693 28.8872 16.0807 28.8872C15.0922 28.8872 14.1153 28.6731 13.2174 28.2595C12.3444 27.8422 11.5702 27.2442 10.9459 26.5049C10.282 25.714 9.77094 24.8067 9.43861 23.8291C9.06657 22.7394 8.88278 21.5944 8.89511 20.4431C8.88278 19.2917 9.06657 18.1467 9.43861 17.0571C9.77115 16.0798 10.2822 15.1728 10.9459 14.3821C11.5722 13.6403 12.3457 13.0365 13.2174 12.6089C14.1131 12.1873 15.0908 11.9688 16.0807 11.9688C17.0707 11.9688 18.0484 12.1873 18.9441 12.6089C19.8212 13.0338 20.5996 13.6379 21.2289 14.3821C21.8926 15.1728 22.4036 16.0798 22.7362 17.0571C23.1085 18.1467 23.2926 19.2917 23.2806 20.4431ZM19.5177 20.4431C19.5244 19.7523 19.44 19.0637 19.2668 18.395C19.1235 17.8244 18.8836 17.2825 18.5575 16.7928C18.2775 16.3716 17.9059 16.0192 17.4705 15.7617C17.0512 15.5199 16.5749 15.3947 16.0909 15.3991C15.598 15.3922 15.1121 15.5174 14.6839 15.7617C14.2487 16.0195 13.8772 16.3719 13.5969 16.7928C13.2712 17.2827 13.0313 17.8245 12.8876 18.395C12.7151 19.0638 12.631 19.7524 12.6375 20.4431C12.63 21.1309 12.7141 21.8167 12.8876 22.4823C13.0332 23.0477 13.2729 23.5845 13.5969 24.0703C13.8772 24.4912 14.2487 24.8436 14.6839 25.1014C15.112 25.3461 15.5979 25.4713 16.0909 25.464C16.575 25.4688 17.0514 25.3436 17.4705 25.1014C17.9059 24.8439 18.2775 24.4915 18.5575 24.0703C18.8818 23.5847 19.1216 23.0478 19.2668 22.4823C19.441 21.8168 19.5254 21.131 19.5177 20.4431Z" fill="white"/>
<path d="M7.66717 11.9707H4.34766V28.8857H7.66717V11.9707Z" fill="white"/>
<path d="M22.092 7.02746C21.8831 7.02892 21.6758 6.99071 21.4811 6.91486C21.2992 6.84597 21.1324 6.74238 20.9899 6.60986C20.8521 6.48081 20.741 6.32598 20.6628 6.15414C20.5822 5.9753 20.5413 5.78109 20.5431 5.58493C20.5404 5.38285 20.5889 5.18338 20.684 5.00507C20.7826 4.82823 20.9207 4.67653 21.0875 4.56176C21.2766 4.43035 21.4864 4.33146 21.7081 4.26918C21.9629 4.19611 22.2268 4.16027 22.4919 4.16278C22.7202 4.1635 22.9481 4.18427 23.1728 4.22485C23.3816 4.26028 23.5862 4.31672 23.7837 4.3933V4.01826C23.7837 3.64056 23.6776 3.34502 23.4654 3.13164C23.2532 2.91826 22.952 2.81068 22.5619 2.80891C22.0967 2.80891 21.607 2.98889 21.0928 3.34886L20.8348 2.83639C21.4312 2.43564 22.0302 2.23497 22.632 2.23438C23.2337 2.23379 23.7065 2.39633 24.0505 2.72202C24.3892 3.04889 24.5586 3.50727 24.5586 4.09717V5.98302C24.5586 6.16655 24.641 6.26053 24.8059 6.26674V6.93969C24.7235 6.95121 24.6561 6.96008 24.6029 6.9654C24.547 6.97159 24.4907 6.97455 24.4345 6.97426C24.3672 6.97763 24.3 6.96726 24.2369 6.94379C24.1738 6.92031 24.1161 6.88422 24.0674 6.83772C23.9771 6.74835 23.9193 6.63129 23.9034 6.50524L23.8856 6.17808C23.6829 6.45273 23.413 6.67071 23.1019 6.81113C22.7838 6.95604 22.438 7.02986 22.0885 7.02746H22.092ZM22.2924 6.44318C22.5585 6.44543 22.8223 6.39292 23.0673 6.2889C23.2828 6.20338 23.4709 6.06087 23.6117 5.87662C23.6613 5.83331 23.7017 5.78046 23.7305 5.7212C23.7593 5.66195 23.7759 5.59752 23.7792 5.53173V4.84992C23.406 4.70371 23.0088 4.62853 22.608 4.62826C22.2191 4.62826 21.902 4.71101 21.6567 4.87651C21.5445 4.94303 21.4516 5.03761 21.3871 5.15094C21.3225 5.26427 21.2886 5.39245 21.2887 5.52286C21.2878 5.64781 21.3139 5.77148 21.365 5.88549C21.414 5.99699 21.4862 6.09674 21.5769 6.17808C21.6712 6.26222 21.7803 6.32807 21.8987 6.37225C22.0262 6.42043 22.1615 6.44448 22.2977 6.44318" fill="white"/>
<path d="M25.326 4.62053C25.3241 4.30572 25.3809 3.99331 25.4936 3.69933C25.6011 3.41753 25.7639 3.16009 25.9724 2.94216C26.1825 2.7242 26.4334 2.54977 26.7109 2.4288C27.0141 2.29877 27.3413 2.23412 27.6712 2.23906C28.089 2.22804 28.5016 2.33366 28.8628 2.54406C29.188 2.73929 29.4504 3.02358 29.6191 3.3633L28.8575 3.6018C28.7442 3.38864 28.5726 3.21212 28.3627 3.09288C28.1458 2.97282 27.9013 2.91168 27.6534 2.91556C27.4476 2.91482 27.2439 2.95792 27.0561 3.042C26.8682 3.12608 26.7004 3.24921 26.5638 3.4032C26.4268 3.56144 26.319 3.74276 26.2455 3.93872C26.0829 4.37842 26.0829 4.86176 26.2455 5.30146C26.3222 5.50439 26.4345 5.69203 26.5771 5.8556C26.7133 6.00951 26.8791 6.13436 27.0647 6.22266C27.2513 6.3116 27.4556 6.35707 27.6623 6.35566C27.7985 6.35541 27.934 6.33601 28.0648 6.29803C28.1919 6.2621 28.3137 6.20995 28.4274 6.14287C28.5331 6.08067 28.63 6.00464 28.7156 5.91678C28.7939 5.83767 28.8543 5.74275 28.8929 5.63838L29.6536 5.86801C29.5822 6.04028 29.4821 6.19918 29.3575 6.33792C29.2293 6.48094 29.0798 6.60326 28.9142 6.70055C28.5399 6.9168 28.115 7.02999 27.6827 7.0286C27.3647 7.03301 27.0492 6.97156 26.7561 6.84811C26.4629 6.72467 26.1985 6.54191 25.9795 6.31133C25.7705 6.08953 25.6064 5.8294 25.4963 5.54528C25.3808 5.25073 25.3224 4.9369 25.3243 4.62053" fill="white"/>
</g>
<defs>
<clipPath id="clip0_6499_52380">
<rect width="32" height="32" fill="white"/>
</clipPath>
</defs>
</svg>
